<!-- <svg xmlns="http://www.w3.org/2000/svg" viewBox="0 0 841.9 595.3">
    <g fill="#61DAFB">
        <path d="M666.3 296.5c0-32.5-40.7-63.3-103.1-82.4 14.4-63.6 8-114.2-20.2-130.4-6.5-3.8-14.1-5.6-22.4-5.6v22.3c4.6 0 8.3.9 11.4 2.6 13.6 7.8 19.5 37.5 14.9 75.7-1.1 9.4-2.9 19.3-5.1 29.4-19.6-4.8-41-8.5-63.5-10.9-13.5-18.5-27.5-35.3-41.6-50 32.6-30.3 63.2-46.9 84-46.9V78c-27.5 0-63.5 19.6-99.9 53.6-36.4-33.8-72.4-53.2-99.9-53.2v22.3c20.7 0 51.4 16.5 84 46.6-14 14.7-28 31.4-41.3 49.9-22.6 2.4-44 6.1-63.6 11-2.3-10-4-19.7-5.2-29-4.7-38.2 1.1-67.9 14.6-75.8 3-1.8 6.9-2.6 11.5-2.6V78.5c-8.4 0-16 1.8-22.6 5.6-28.1 16.2-34.4 66.7-19.9 130.1-62.2 19.2-102.7 49.9-102.7 82.3 0 32.5 40.7 63.3 103.1 82.4-14.4 63.6-8 114.2 20.2 130.4 6.5 3.8 14.1 5.6 22.5 5.6 27.5 0 63.5-19.6 99.9-53.6 36.4 33.8 72.4 53.2 99.9 53.2 8.4 0 16-1.8 22.6-5.6 28.1-16.2 34.4-66.7 19.9-130.1 62-19.1 102.5-49.9 102.5-82.3zm-130.2-66.7c-3.7 12.9-8.3 26.2-13.5 39.5-4.1-8-8.4-16-13.1-24-4.6-8-9.5-15.8-14.4-23.4 14.2 2.1 27.9 4.7 41 7.9zm-45.8 106.5c-7.8 13.5-15.8 26.3-24.1 38.2-14.9 1.3-30 2-45.2 2-15.1 0-30.2-.7-45-1.9-8.3-11.9-16.4-24.6-24.2-38-7.6-13.1-14.5-26.4-20.8-39.8 6.2-13.4 13.2-26.8 20.7-39.9 7.8-13.5 15.8-26.3 24.1-38.2 14.9-1.3 30-2 45.2-2 15.1 0 30.2.7 45 1.9 8.3 11.9 16.4 24.6 24.2 38 7.6 13.1 14.5 26.4 20.8 39.8-6.3 13.4-13.2 26.8-20.7 39.9zm32.3-13c5.4 13.4 10 26.8 13.8 39.8-13.1 3.2-26.9 5.9-41.2 8 4.9-7.7 9.8-15.6 14.4-23.7 4.6-8 8.9-16.1 13-24.1zM421.2 430c-9.3-9.6-18.6-20.3-27.8-32 9 .4 18.2.7 27.5.7 9.4 0 18.7-.2 27.8-.7-9 11.7-18.3 22.4-27.5 32zm-74.4-58.9c-14.2-2.1-27.9-4.7-41-7.9 3.7-12.9 8.3-26.2 13.5-39.5 4.1 8 8.4 16 13.1 24 4.7 8 9.5 15.8 14.4 23.4zM420.7 163c9.3 9.6 18.6 20.3 27.8 32-9-.4-18.2-.7-27.5-.7-9.4 0-18.7.2-27.8.7 9-11.7 18.3-22.4 27.5-32zm-74 58.9c-4.9 7.7-9.8 15.6-14.4 23.7-4.6 8-8.9 16-13 24-5.4-13.4-10-26.8-13.8-39.8 13.1-3.1 26.9-5.8 41.2-7.9zm-90.5 125.2c-35.4-15.1-58.3-34.9-58.3-50.6 0-15.7 22.9-35.6 58.3-50.6 8.6-3.7 18-7 27.7-10.1 5.7 19.6 13.2 40 22.5 60.9-9.2 20.8-16.6 41.1-22.2 60.6-9.9-3.1-19.3-6.5-28-10.2zM310 490c-13.6-7.8-19.5-37.5-14.9-75.7 1.1-9.4 2.9-19.3 5.1-29.4 19.6 4.8 41 8.5 63.5 10.9 13.5 18.5 27.5 35.3 41.6 50-32.6 30.3-63.2 46.9-84 46.9-4.5-.1-8.3-1-11.3-2.7zm237.2-76.2c4.7 38.2-1.1 67.9-14.6 75.8-3 1.8-6.9 2.6-11.5 2.6-20.7 0-51.4-16.5-84-46.6 14-14.7 28-31.4 41.3-49.9 22.6-2.4 44-6.1 63.6-11 2.3 10.1 4.1 19.8 5.2 29.1zm38.5-66.7c-8.6 3.7-18 7-27.7 10.1-5.7-19.6-13.2-40-22.5-60.9 9.2-20.8 16.6-41.1 22.2-60.6 9.9 3.1 19.3 6.5 28.1 10.2 35.4 15.1 58.3 34.9 58.3 50.6-.1 15.7-23 35.6-58.4 50.6zM320.8 78.4z"/>
        <circle cx="420.9" cy="296.5" r="45.7"/>
        <path d="M520.5 78.1z"/>
    </g>
</svg> -->
<!-- height="512" width="512"  -->
<svg viewBox="0 0 60 60" 
    xmlns="http://www.w3.org/2000/svg">
    <g id="Page-1" fill="none" fill-rule="evenodd">
        <g id="019---Heart-Chakra" fill-rule="nonzero">
            <path id="Shape" d="m35.82 8.28c-.3541217.40111686-.6720298.83280262-.95 1.29-3.5873567-.85099682-7.3350415-.74756486-10.87.3.0077573-.53461759.0680472-1.06717813.18-1.59.173285-.81543889.5026685-1.58965983.97-2.28 1.76-2.55 4.85-3 4.85-5 0 2 3.09 2.45 4.85 5 .4673315.69034017.796715 1.46456111.97 2.28z" fill="#e8edfc"/>
            <path id="Shape" d="m34.85 6c-1.76-2.55-4.85-3-4.85-5 0 .908-.64 1.5-1.5 2.108 1.2860788.74829024 2.4220051 1.72891681 3.35 2.892.4673315.69034017.796715 1.46456111.97 2.28-.2320905.26686129-.4484561.54700141-.648.839.9087946.09187178 1.8106832.24252057 2.7.451.2779702-.45719738.5958783-.88888314.95-1.29-.1738961-.81558347-.5039626-1.58981358-.972-2.28z" fill="#cad9fc"/>
            <g fill="#e8edfc">
                <path id="Shape" d="m24.18 8.28c-.1119528.52282187-.1722427 1.05538241-.18 1.59-3.5328641 1.0491963-6.7245501 3.0159649-9.25 5.7-.2628938-.4634028-.4773588-.9526509-.64-1.46-.2721883-.7932321-.3777232-1.6341069-.31-2.47.25-3.09 2.7-5.02 1.7-6.75 1 1.73 3.9.57 6.7 1.9.7506463.36312976 1.4232156.8692551 1.98 1.49z"/>
                <path id="Shape" d="m14.75 15.57c-2.5437706 2.671009-4.3315223 5.9704117-5.18 9.56-.45719738-.2779702-.88888314-.5958783-1.29-.95-.6207449-.5567844-1.12687024-1.2293537-1.49-1.98-1.33-2.8-.17-5.7-1.9-6.7 1.73 1 3.66-1.45 6.75-1.7.8358076-.0640253 1.6759369.041416 2.47.31.1626412.5073491.3771062.9965972.64 1.46z"/>
                <path id="Shape" d="m9.87 36c-.53461759-.0077573-1.06717813-.0680472-1.59-.18-.81543889-.173285-1.58965983-.5026685-2.28-.97-2.55-1.76-3-4.85-5-4.85 2 0 2.45-3.09 5-4.85.69034017-.4673315 1.46456111-.796715 2.28-.97.40111686.3541217.83280262.6720298 1.29.95-.85099682 3.5873567-.74756486 7.3350415.3 10.87z"/>
                <path id="Shape" d="m15.57 45.25c-.4634028.2628938-.9526509.4773588-1.46.64-.7932321.2721883-1.6341069.3777232-2.47.31-3.09-.25-5.02-2.7-6.75-1.7 1.73-1 .57-3.9 1.9-6.7.36312976-.7506463.8692551-1.4232156 1.49-1.98.52282187.1119528 1.05538241.1722427 1.59.18 1.0491963 3.5328641 3.0159649 6.7245501 5.7 9.25z"/>
                <path id="Shape" d="m25.13 50.43c-.2779702.4571974-.5958783.8888831-.95 1.29-.5567844.6207449-1.2293537 1.1268702-1.98 1.49-2.8 1.33-5.7.17-6.7 1.9 1-1.73-1.45-3.66-1.7-6.75-.0640253-.8358076.041416-1.6759369.31-2.47.5073491-.1626412.9965972-.3771062 1.46-.64 2.671009 2.5437706 5.9704117 4.3315223 9.56 5.18z"/>
                <path id="Shape" d="m36 50.13c-.0077573.5346176-.0680472 1.0671781-.18 1.59-.173285.8154389-.5026685 1.5896598-.97 2.28-1.76 2.55-4.85 3-4.85 5 0-2-3.09-2.45-4.85-5-.4673315-.6903402-.796715-1.4645611-.97-2.28.3541217-.4011169.6720298-.8328026.95-1.29 3.5873567.8509968 7.3350415.7475649 10.87-.3z"/>
            </g>
            <path id="Shape" d="m32.959 50.791c-.02775.3121634-.0741664.6223852-.139.929-.173285.8154389-.5026685 1.5896598-.97 2.28-.9279949 1.1630832-2.0639212 2.1437098-3.35 2.892.86.611 1.5 1.2 1.5 2.108 0-2 3.09-2.45 4.85-5 .4673315-.6903402.796715-1.4645611.97-2.28.1119528-.5228219.1722427-1.0553824.18-1.59-.9956015.2964948-2.0121529.5174552-3.041.661z" fill="#cad9fc"/>
            <path id="Shape" d="m46.2 48.36c-.25 3.09-2.7 5.02-1.7 6.75-1-1.73-3.9-.57-6.7-1.9-.7506463-.3631298-1.4232156-.8692551-1.98-1.49.1119528-.5228219.1722427-1.0553824.18-1.59 3.5328641-1.0491963 6.7245501-3.0159649 9.25-5.7.2628938.4634028.4773588.9526509.64 1.46.2721883.7932321.3777232 1.6341069.31 2.47z" fill="#e8edfc"/>
            <path id="Shape" d="m45.89 45.89c-.1626412-.5073491-.3771062-.9965972-.64-1.46-.684868.7233551-1.4200352 1.3973698-2.2 2.017.1547001.6251048.2053785 1.2714227.15 1.913-.2 2.434-1.752 4.146-1.918 5.61 1.445.106 2.645.148 3.218 1.14-1-1.73 1.45-3.66 1.7-6.75.0677232-.8358931-.0378117-1.6767679-.31-2.47z" fill="#cad9fc"/>
            <path id="Shape" d="m55.11 44.5c-1.73-1-3.66 1.45-6.75 1.7-.8358076.0640253-1.6759369-.041416-2.47-.31-.1626412-.5073491-.3771062-.9965972-.64-1.46 2.5437706-2.671009 4.3315223-5.9704117 5.18-9.56.4571974.2779702.8888831.5958783 1.29.95.6207449.5567844 1.1268702 1.2293537 1.49 1.98 1.33 2.8.17 5.7 1.9 6.7z" fill="#e8edfc"/>
            <path id="Shape" d="m53.21 37.8c-.3631298-.7506463-.8692551-1.4232156-1.49-1.98-.4011169-.3541217-.8328026-.6720298-1.29-.95-.1799136.7477172-.4012551 1.4848544-.663 2.208.1651358.2295017.3132004.4708169.443.722 1.33 2.8.17 5.7 1.9 6.7-1.53-.884-3.217.926-5.723 1.531.6441702.1628362 1.3105208.2199133 1.973.169 3.09-.25 5.02-2.7 6.75-1.7-1.73-1-.57-3.9-1.9-6.7z" fill="#cad9fc"/>
            <path id="Shape" d="m47.65 41.36c-.1235198.2237043-.2639273.4376585-.42.64h-34.46c-.15-.21-.29-.42-.42-.64l6.2-11.36 6.54-12 4.91-9 4.91 9 6.54 12z" fill="#e8edfc"/>
            <path id="Shape" d="m41.45 30-6.54-12-4.91-9-1.5 2.75 3.41 6.25 6.54 12 6.2 11.36c-.1235198.2237043-.2639273.4376585-.42.64h3c.1560727-.2023415.2964802-.4162957.42-.64z" fill="#cad9fc"/>
            <path id="Shape" d="m18.55 30-6.2 11.36c-1.08159-1.6572971-1.916961-3.4627763-2.48-5.36-1.04756486-3.5349585-1.15099682-7.2826433-.3-10.87.5424182-2.308467 1.4831713-4.5046857 2.78-6.49z" fill="#a4c2f7"/>
            <path id="Shape" d="m24 9.87c1.9470129-.58040531 3.9683216-.87349508 6-.87003089l-4.91 9.00003089h-12.31c.5888547-.8626997 1.2477476-1.6754458 1.97-2.43 2.5254499-2.6840351 5.7171359-4.6508037 9.25-5.7z" fill="#a4c2f7"/>
            <path id="Shape" d="m25.09 42 4.91 9c-1.6399801.0001029-3.2743689-.1911911-4.87-.57-3.5895883-.8484777-6.888991-2.6362294-9.56-5.18-1.0488541-.9781806-1.9877526-2.0679735-2.8-3.25z" fill="#a4c2f7"/>
            <path id="Shape" d="m47.22 42c-.5888547.8626997-1.2477476 1.6754458-1.97 2.43-3.9587381 4.2008313-9.4777805 6.5785434-15.25 6.5700229l4.91-9.0000229z" fill="#a4c2f7"/>
            <path id="Shape" d="m44.22 42c-.5888547.8626997-1.2477476 1.6754458-1.97 2.43-2.5254499 2.6840351-5.7171359 4.6508037-9.25 5.7-.9411874.281059-1.9013158.4942724-2.873.638l-.127.2320229c5.7722195.0085205 11.2912619-2.3691916 15.25-6.5700229.7222524-.7545542 1.3811453-1.5673003 1.97-2.43z" fill="#7facfa"/>
            <path id="Shape" d="m47.65 18.64-6.2 11.36-6.54-12h12.32c.15.21.29.42.42.64z" fill="#e8edfc"/>
            <path id="Shape" d="m47.23 18h-3c.15.21.29.42.42.64l-4.7 8.61 1.5 2.75 6.2-11.36c-.13-.22-.27-.43-.42-.64z" fill="#cad9fc"/>
            <path id="Shape" d="m47.23 18h-12.32l-4.91-9.00000004c1.6399801-.00010285 3.2743689.19119112 4.87.57000004 3.5895883.8484777 6.888991 2.6362294 9.56 5.18 1.0488541.9781806 1.9877526 2.0679735 2.8 3.25z" fill="#a4c2f7"/>
            <path id="Shape" d="m44.43 14.75c-2.671009-2.5437706-5.9704117-4.3315223-9.56-5.18-1.5956311-.37880892-3.2300199-.57010289-4.87-.57000004l.132.24300004c.587.088 1.169.192 1.738.327 3.5895883.8484777 6.888991 2.6362294 9.56 5.18 1.0488541.9781806 1.9877526 2.0679735 2.8 3.25h3c-.8122474-1.1820265-1.7511459-2.2718194-2.8-3.25z" fill="#7facfa"/>
            <path id="Shape" d="m51 30c.0001029 1.6399801-.1911911 3.2743689-.57 4.87-.5424182 2.308467-1.4831713 4.5046857-2.78 6.49l-6.2-11.36 6.2-11.36c1.08159 1.6572971 1.916961 3.4627763 2.48 5.36.5804053 1.9470129.8734951 3.9683216.87 6z" fill="#a4c2f7"/>
            <path id="Shape" d="m50.13 24c-.563039-1.8972237-1.39841-3.7027029-2.48-5.36l-1.5 2.748c.3854656.8474588.7128867 1.7201364.98 2.612 1.0475649 3.5349585 1.1509968 7.2826433.3 10.87-.3058927 1.2820693-.7359226 2.5312994-1.284 3.73l1.5 2.755c1.2968287-1.9853143 2.2375818-4.181533 2.78-6.49.8514077-3.5854171.7493582-7.3312573-.296-10.865z" fill="#7facfa"/>
            <path id="Shape" d="m59 30c-2 0-2.45 3.09-5 4.85-.6903402.4673315-1.4645611.796715-2.28.97-.4011169-.3541217-.8328026-.6720298-1.29-.95.8509968-3.5873567.7475649-7.3350415-.3-10.87.5346176.0077573 1.0671781.0680472 1.59.18.8154389.173285 1.5896598.5026685 2.28.97 2.55 1.76 3 4.85 5 4.85z" fill="#e8edfc"/>
            <path id="Shape" d="m54 25.15c-.6903402-.4673315-1.4645611-.796715-2.28-.97-.5228219-.1119528-1.0553824-.1722427-1.59-.18.074.248.131.5.2.756.2315955.1167488.4553961.2483569.67.394 2.55 1.76 3 4.85 5 4.85-2 0-2.45 3.09-5 4.85-.1.071-.209.128-.314.191.3626328.2349193.7081647.4952378 1.034.779.8154389-.173285 1.5896598-.5026685 2.28-.97 2.55-1.76 3-4.85 5-4.85-2 0-2.45-3.09-5-4.85z" fill="#cad9fc"/>
            <path id="Shape" d="m55.11 15.5c-1.73 1-.57 3.9-1.9 6.7-.3631298.7506463-.8692551 1.4232156-1.49 1.98-.5228219-.1119528-1.0553824-.1722427-1.59-.18-1.0491963-3.5328641-3.0159649-6.7245501-5.7-9.25.4634028-.2628938.9526509-.4773588 1.46-.64.7932321-.2721883 1.6341069-.3777232 2.47-.31 3.09.25 5.02 2.7 6.75 1.7z" fill="#e8edfc"/>
            <path id="Shape" d="m48.36 13.8c-.6624917-.0558433-1.3296559.0013035-1.973.169 2.506.605 4.193 2.415 5.723 1.531-1.73 1-.57 3.9-1.9 6.7-.1293957.2494979-.276436.4894409-.44.718.127.357.252.716.36 1.082.5346176.0077573 1.0671781.0680472 1.59.18.6207449-.5567844 1.1268702-1.2293537 1.49-1.98 1.33-2.8.17-5.7 1.9-6.7-1.73 1-3.66-1.45-6.75-1.7z" fill="#cad9fc"/>
            <path id="Shape" d="m45.89 14.11c-.5073491.1626412-.9965972.3771062-1.46.64-2.671009-2.5437706-5.9704117-4.3315223-9.56-5.18.2779702-.45719738.5958783-.88888314.95-1.29.5567844-.6207449 1.2293537-1.12687024 1.98-1.49 2.8-1.33 5.7-.17 6.7-1.9-1 1.73 1.45 3.66 1.7 6.75.0640253.8358076-.041416 1.6759369-.31 2.47z" fill="#e8edfc"/>
            <path id="Shape" d="m46.2 11.64c-.25-3.09-2.7-5.02-1.7-6.75-.573.992-1.772 1.034-3.218 1.14.166 1.464 1.718 3.176 1.918 5.61.0498465.6434008-.001784 1.2906381-.153 1.918.476.38.942.773 1.383 1.192.4634028-.2628938.9526509-.4773588 1.46-.64.268584-.7940631.3740253-1.6341924.31-2.47z" fill="#cad9fc"/>
            <path id="Shape" d="m25.09 18-6.54 12-6.2-11.36c.1235198-.2237043.2639273-.4376585.42-.64z" fill="#e8edfc"/>
            <path id="Shape" d="m34.91 42-4.91 9-4.91-9z" fill="#e8edfc"/>
            <path id="Shape" d="m31.91 42-3.41 6.25 1.5 2.75 4.91-9z" fill="#cad9fc"/>
            <path id="Shape" d="m18.709 53.97c-.226-1.937-2.835-4.372-1.6-8.08-.9847332.3356837-2.0382329.4175423-3.063.238-1.266 4.324 2.661 6.893 1.453 8.982.574-.99 1.771-1.035 3.21-1.14z" fill="#fff"/>
            <path id="Shape" d="m17.11 14.11c-1.245-3.783 1.388-6.145 1.606-8.077-1.445-.112-2.649-.163-3.216-1.143 1.229 2.127-2.735 4.58-1.451 8.989 1.0233171-.1856793 2.0771386-.1061521 3.061.231z" fill="#fff"/>
            <path id="Shape" d="m8.28 35.82c-3.552 3.246-1.241 7.438-3.39 8.68 2.08-1.2 4.473 2.56 8.7 1.526-2.472-.608-4.172-2.41-5.7-1.526 2.149-1.242-.162-5.434 3.39-8.68-4.71-1.04-4.787-5.82-7.28-5.82 2.488 0 2.578-4.782 7.28-5.82-3.559-3.252-1.238-7.436-3.39-8.68 1.5.868 3.251-.916 5.719-1.523-4.164-1.036-6.672 2.706-8.719 1.523 2.152 1.244-.169 5.428 3.39 8.68-4.702 1.038-4.792 5.82-7.28 5.82 2.493 0 2.57 4.78 7.28 5.82z" fill="#fff"/>
            <path id="Shape" d="m59 29c-.541 0-.965-.585-1.667-1.621-.7186296-1.1861383-1.6587078-2.2229742-2.769-3.054-.3477023-.2360786-.7158378-.4405612-1.1-.611.2488574-.3411917.4660898-.7043615.649-1.085.5455318-1.2754512.8402354-2.6440574.868-4.031.09-1.245.164-1.963.629-2.232.3119508-.1773616.5049532-.5082732.5057421-.8671183s-.1907567-.6906021-.5019247-.8693336c-.3111679-.1787314-.694247-.1770325-1.0038174.0044519-.466.27-1.125-.025-2.248-.57-1.2114141-.6670602-2.5392995-1.0961111-3.912-1.264-.4238793-.035085-.8501364-.0297275-1.273.016.0441585-.4185674.0508517-.840242.02-1.26-.1659533-1.3758791-.5940042-2.70721587-1.261-3.922-.545-1.123-.84-1.781-.57-2.247.1814844-.30957042.1831833-.69264947.0044519-1.00381742-.1787315-.31116795-.5104885-.50271357-.8693336-.50192468-.3588451.00078888-.6897567.19379132-.8671183.5057421-.269.466-.987.539-2.232.629-1.3869426.0277646-2.7555488.32246819-4.031.868-.3803967.18335932-.7435269.40056807-1.085.649-.1717504-.38389837-.3768712-.75197796-.613-1.1-.8312288-1.10828986-1.8672694-2.04690456-3.052-2.765-1.035-.704-1.621-1.127-1.621-1.668 0-.55228475-.4477153-1-1-1s-1 .44771525-1 1c0 .541-.586.964-1.621 1.667-1.1857049.71879485-2.2224532 1.6584541-3.054 2.768-.2356154.34798718-.4400745.71608048-.611 1.1-.3411917-.24885739-.7043615-.46608983-1.085-.649-1.2748981-.54493755-2.6427985-.83929588-4.029-.867-1.245-.09-1.963-.163-2.232-.629-.2780058-.47421361-.886647-.63512861-1.3626943-.36027453s-.640996.88241457-.3693057 1.36027453c.27.466-.025 1.124-.57 2.247-.665522 1.21140511-1.0932054 2.5389208-1.26 3.911-.0359453.4238285-.030922.8501362.015 1.273-.4186259-.043342-.8402576-.0496999-1.26-.019-1.3755302.1661022-2.70651172.594148-3.921 1.261-1.124.545-1.782.84-2.248.57-.30957042-.1814844-.69264947-.1831833-1.00381742-.0044519-.31116795.1787315-.50271357.5104885-.50192468.8693336.00078888.3588451.19379132.6897567.5057421.8671183.465.269.539.987.629 2.232.0277646 1.3869426.32246819 2.7555488.868 4.031.18335932.3803967.40056807.7435269.649 1.085-.38389837.1717504-.75197796.3768712-1.1.613-1.10850781.8309897-2.04716401 1.867076-2.765 3.052-.708 1.037-1.132 1.622-1.673 1.622-.55228475 0-1 .4477153-1 1s.44771525 1 1 1c.541 0 .965.585 1.667 1.621.71862962 1.1861383 1.65870775 2.2229742 2.769 3.054.34770229.2360786.71583779.4405612 1.1.611-.24885739.3411917-.46608983.7043615-.649 1.085-.54528097 1.2748297-.83997937 2.6427327-.868 4.029-.09 1.245-.164 1.963-.629 2.232-.31195078.1773616-.50495322.5082732-.5057421.8671183-.00078889.3588451.19075673.6906021.50192468.8693336.31116795.1787314.694247.1770325 1.00381742-.0044519.466-.269 1.124.025 2.248.57 1.21127054.6677577 2.5391632 1.0974898 3.912 1.266.192.017.387.026.582.026.2315039-.007535.4624717-.0268936.692-.058-.0457545.4224462-.0537863.8481285-.024 1.272.1659533 1.3758791.5940042 2.7072159 1.261 3.922.545 1.123.84 1.781.57 2.247-.1814844.3095704-.1831833.6926495-.0044519 1.0038174.1787315.311168.5104885.5027136.8693336.5019247s.6897567-.1937913.8671183-.5057421c.269-.466.987-.539 2.232-.629 1.3869426-.0277646 2.7555488-.3224682 4.031-.868.3803967-.1833593.7435269-.4005681 1.085-.649.1717504.3838984.3768712.751978.613 1.1.8312288 1.1082899 1.8672694 2.0469046 3.052 2.765 1.038.708 1.624 1.131 1.624 1.672 0 .5522847.4477153 1 1 1s1-.4477153 1-1c0-.541.586-.964 1.621-1.667 1.1857049-.7187948 2.2224532-1.6584541 3.054-2.768.2356154-.3479872.4400745-.7160805.611-1.1.3411917.2488574.7043615.4660898 1.085.649 1.2754512.5455318 2.6440574.8402354 4.031.868 1.245.09 1.963.163 2.232.629.2780058.4742136.886647.6351286 1.3626943.3602745.4760473-.274854.640996-.8824145.3693057-1.3602745-.27-.466.025-1.124.57-2.247.665522-1.2114051 1.0932054-2.5389208 1.26-3.911.0362634-.4295309.0305698-.8615739-.017-1.29.235.023.468.058.7.058.185 0 .372-.008.558-.022 1.3755302-.1661022 2.7065117-.594148 3.921-1.261 1.123-.545 1.782-.839 2.248-.57.3095704.1814844.6926495.1831833 1.0038174.0044519.311168-.1787315.5027136-.5104885.5019247-.8693336s-.1937913-.6897567-.5057421-.8671183c-.465-.269-.539-.987-.629-2.232-.0277646-1.3869426-.3224682-2.7555488-.868-4.031-.1833593-.3803967-.4005681-.7435269-.649-1.085.3838984-.1717504.751978-.3768712 1.1-.613 1.1085078-.8309897 2.047164-1.867076 2.765-3.052.71-1.038 1.134-1.623 1.675-1.623.5522847 0 1-.4477153 1-1s-.4477153-1-1-1zm-10.721-14.2c1.1280655.1491301 2.2174448.5115778 3.21 1.068.5576189.2907435 1.1390685.533293 1.738.725-.1335173.6139688-.214146 1.2382552-.241 1.866-.0125467 1.1385467-.2430317 2.2641551-.679 3.316-.2473069.4920532-.5694734.942749-.955 1.336-.159-.023-.321-.045-.485-.06-.9898229-2.960226-2.5980876-5.6760048-4.718-7.967l.053-.02c.6665384-.2310648 1.3738507-.3209687 2.077-.264zm-16.546 35.112 3.767-6.912h9.664c-3.3983986 3.97483-8.2212777 6.4568299-13.431 6.912zm-16.901-6.912h9.668l3.771 6.912c-5.2125707-.4531353-10.0386748-2.9353164-13.439-6.912zm-2.511-22.325 5.087 9.325-5.087 9.329c-3.09464239-5.8315402-3.09464239-12.8184598 0-18.65zm15.946-10.587-3.767 6.912h-9.668c3.399362-3.9757567 8.2238535-6.4578472 13.435-6.912zm16.901 6.912h-9.668l-3.77-6.912c5.2122146.4533897 10.0379156 2.9355481 13.438 6.912zm-31.483 24 16.315-29.912 16.315 29.912zm19.54 2-3.225 5.912-3.225-5.912zm-14.678-15.092-4.862-8.908h9.721zm18.047-8.908h9.721l-4.862 8.908zm11.085 20.325-5.087-9.325 5.087-9.321c3.0946424 5.8315402 3.0946424 12.8184598 0 18.65zm-9.45-31.632c1.0522556-.43589197 2.1781116-.66669755 3.317-.68.627351-.02626261 1.251299-.10622162 1.865-.239.1912866.59844182.4338529 1.1792626.725 1.736.5548985.99218164.9159838 2.0808674 1.064 3.208.0338354.5538492-.021194 1.1095442-.163 1.646-.152.06-.3.121-.45.189-2.3325515-2.0757768-5.0800368-3.63154886-8.06-4.564.01-.011.019-.024.029-.035.4705241-.52494781 1.0387651-.95325138 1.673-1.261zm-12.255-1.125c.6913764-.90261323 1.548725-1.66492715 2.526-2.246.5317241-.33783787 1.0335557-.72056809 1.5-1.144.4664443.42343191.9682759.80616213 1.5 1.144.976993.58020653 1.8343197 1.34148276 2.526 2.243.3037224.46188252.5344314.96782337.684 1.5-.1.126-.2.251-.288.379-3.0625841-.62668881-6.2236446-.59259627-9.272.1 0-.017 0-.034.008-.051.1456003-.68819519.4226682-1.34181723.816-1.925zm-11.174 5.153c.1475502-1.1281867.5086523-2.21794145 1.064-3.211.2911471-.5567374.5337134-1.13755818.725-1.736.613701.13277838 1.237649.21273739 1.865.239 1.1388884.01330245 2.2647444.24410803 3.317.68.492196.24707034.9429266.56926178 1.336.955-.024.159-.045.321-.06.485-2.9600236.9896158-5.6755172 2.5979134-7.966 4.718-.006-.019-.015-.035-.02-.054-.2316143-.6660414-.3205394-1.373354-.261-2.076zm-6.289 4.143c.99175765-.5550476 2.0801458-.9161467 3.207-1.064.5538766-.0353437 1.1098132.0197095 1.646.163.06.152.121.3.189.45-2.0756748 2.3313185-3.63116248 5.0778809-4.563 8.057-.012-.01-.024-.018-.035-.028-.52509955-.4698436-.95373506-1.037395-1.262-1.671-.4359683-1.0518449-.66645326-2.1774533-.679-3.316-.02685403-.6277448-.10748266-1.2520312-.241-1.866.59893154-.191707 1.18038115-.4342565 1.738-.725zm-4.189 15.636c-.33783787-.5317241-.72056809-1.0335557-1.144-1.5.42343191-.4664443.80616213-.9682759 1.144-1.5.58010578-.9770457 1.34099689-1.8346602 2.242-2.527.46210574-.3030795.96799692-.5334286 1.5-.683.125.1.25.2.378.288-.62669858 3.0622468-.59260585 6.2229837.1 9.271-.016 0-.034 0-.05-.008-.68920265-.1453539-1.34385323-.4224259-1.928-.816-.90101055-.6915348-1.66192651-1.5484985-2.242-2.525zm7.4 13.706c-1.1280655-.1491301-2.21744479-.5115778-3.21-1.068-.55761885-.2907435-1.13906846-.533293-1.738-.725.13351734-.6139688.21414597-1.2382552.241-1.866.01254674-1.1385467.2430317-2.2641551.679-3.316.24730691-.4920532.56947344-.942749.955-1.336.159.023.321.045.485.06.9898229 2.960226 2.5980876 5.6760048 4.718 7.967l-.053.02c-.6670134.230325-1.3749136.3182163-2.078.258zm10.05 7.1c-1.0522556.435892-2.1781116.6666976-3.317.68-.627351.0262626-1.251299.1062216-1.865.239-.1912866-.5984418-.4338529-1.1792626-.725-1.736-.5551278-.9918045-.91655-2.0801435-1.065-3.207-.0338354-.5538492.021194-1.1095442.163-1.646.152-.06.3-.121.45-.189 2.3325515 2.0757768 5.0800368 3.6315489 8.06 4.564-.01.011-.019.024-.029.035-.4705241.5249478-1.0387651.9532514-1.673 1.261zm12.255 1.125c-.6915757.9030698-1.5492768 1.6657347-2.527 2.247-.5317241.3378379-1.0335557.7205681-1.5 1.144-.4664443-.4234319-.9682759-.8061621-1.5-1.144-.976993-.5802065-1.8343197-1.3414828-2.526-2.243-.3037224-.4618825-.5344314-.9678234-.684-1.5.1-.126.2-.251.288-.379 3.0625841.6266888 6.2236446.5925963 9.272-.1 0 .017 0 .034-.008.051-.1456003.6881952-.4226682 1.3418172-.816 1.925zm11.173-5.152c-.1484812 1.128391-.5106052 2.2181567-1.067 3.211-.2911471.5567374-.5337134 1.1375582-.725 1.736-.613701-.1327784-1.237649-.2127374-1.865-.239-1.1388884-.0133024-2.2647444-.244108-3.317-.68-.492196-.2470703-.9429266-.5692618-1.336-.955.024-.159.045-.321.06-.485 2.9600236-.9896158 5.6755172-2.5979134 7.966-4.718.006.019.015.035.02.054.2326296.6658248.3225776 1.373143.264 2.076zm6.286-4.143c-.9908413.5546881-2.078178.9157762-3.204 1.064-.5538938.0363541-1.1099945-.0187154-1.646-.163-.06-.152-.121-.3-.189-.45 2.0760428-2.3321962 3.6315504-5.0798163 4.563-8.06.012.01.024.018.035.028.5250996.4698436.9537351 1.037395 1.262 1.671.4359683 1.0518449.6664533 2.1774533.679 3.316.026854.6277448.1074827 1.2520312.241 1.866-.5990285.1926741-1.1804807.4362283-1.738.728zm4.192-12.636c-.5801058.9770457-1.3409969 1.8346602-2.242 2.527-.4621057.3030795-.9679969.5334286-1.5.683-.125-.1-.25-.2-.378-.288.6266986-3.0622468.5926058-6.2229837-.1-9.271.016 0 .034 0 .05.008.6892026.1453539 1.3438532.4224259 1.928.816.9010105.6915348 1.6619265 1.5484985 2.242 2.525.3378379.5317241.7205681 1.0335557 1.144 1.5-.4234319.4664443-.8061621.9682759-1.144 1.5z" fill="#428dff"/>
        </g>
    </g>
</svg>